<?xml version="1.0" encoding="UTF-8"?>
<!-- Generator: visioncortex VTracer 0.6.4 -->
<svg version="1.1" xmlns="http://www.w3.org/2000/svg" width="500" height="500">
<path d="M0 0 C20.44265307 19.67844174 33.25341892 44.64941723 41.3203125 71.5390625 C41.660625 72.6321875 42.0009375 73.7253125 42.3515625 74.8515625 C46.7674042 91.10185997 47.3584032 109.87767102 45.3203125 126.5390625 C45.19462891 127.6211499 45.19462891 127.6211499 45.06640625 128.72509766 C40.27344267 168.51175839 20.46969458 205.10250869 -10.4921875 230.6640625 C-45.25492875 257.38757331 -86.72178164 269.55981055 -130.41430664 264.01977539 C-146.68789535 261.71391481 -161.94631753 256.75203471 -176.6796875 249.5390625 C-177.30004883 249.24306152 -177.92041016 248.94706055 -178.55957031 248.64208984 C-204.52369995 236.14609298 -225.24311085 215.57346818 -240.6796875 191.5390625 C-241.65035156 190.06373047 -241.65035156 190.06373047 -242.640625 188.55859375 C-263.33636405 155.36112997 -267.86027229 112.91062405 -259.57421875 75.26171875 C-254.53137377 54.18692474 -245.22776261 33.51563009 -231.6796875 16.5390625 C-230.76316406 15.32089844 -230.76316406 15.32089844 -229.828125 14.078125 C-206.94341417 -15.77559242 -170.46720035 -37.25343114 -133.20068359 -42.83203125 C-83.33954482 -49.41240767 -36.85003411 -33.84186806 0 0 Z " fill="#014BAD" transform="translate(358.6796875,139.4609375)"/>
<path d="M0 0 C18.47876442 8.11262828 29.57082146 38.4170096 38.5625 55.125 C38.8925 55.125 39.2225 55.125 39.5625 55.125 C40.7738078 46.40790997 41.83824313 37.94878029 41.5625 29.125 C38.2625 29.125 34.9625 29.125 31.5625 29.125 C31.2325 27.475 30.9025 25.825 30.5625 24.125 C44.0390625 15.140625 44.0390625 15.140625 46.39550781 13.58398438 C47.7309205 12.68488273 49.05192076 11.76335905 50.34667969 10.80664062 C54.01642377 8.12303922 54.01642377 8.12303922 56.73828125 8.1328125 C59.08058038 9.40678248 60.20562172 10.83231224 61.75 13 C62.25917969 13.69867188 62.76835937 14.39734375 63.29296875 15.1171875 C69.54479069 25.00468435 64.24701183 42.0388986 62.69873047 52.93505859 C61.17309297 63.75566848 60.1908573 74.18631657 60.5625 85.125 C61.4596875 85.3415625 61.4596875 85.3415625 62.375 85.5625 C64.12400404 86.0122439 65.84927023 86.55392341 67.5625 87.125 C68.25 89.1875 68.25 89.1875 68.5625 91.125 C64.85313561 93.69655263 61.11731238 96.22668919 57.375 98.75 C56.31990234 99.4821875 55.26480469 100.214375 54.17773438 100.96875 C53.15615234 101.65195312 52.13457031 102.33515625 51.08203125 103.0390625 C50.14464111 103.6779541 49.20725098 104.3168457 48.24145508 104.97509766 C45.5625 106.125 45.5625 106.125 42.92993164 105.59082031 C35.21967061 100.81693074 31.02434965 89.77764556 26.9375 82 C25.72168943 79.71466535 24.5055349 77.42951367 23.2890625 75.14453125 C22.67579102 73.98775879 22.06251953 72.83098633 21.43066406 71.63916016 C18.4188387 65.97368521 15.3670921 60.32999843 12.3125 54.6875 C11.76384277 53.66962402 11.21518555 52.65174805 10.64990234 51.60302734 C10.14152832 50.66281738 9.6331543 49.72260742 9.109375 48.75390625 C8.66432617 47.92963135 8.21927734 47.10535645 7.76074219 46.25610352 C6.77297905 44.49934222 5.68044953 42.8019243 4.5625 41.125 C2.57384802 53.8749389 1.0627536 66.20563014 1.5625 79.125 C3.8725 79.125 6.1825 79.125 8.5625 79.125 C8.8925 80.775 9.2225 82.425 9.5625 84.125 C6.83423504 85.89722551 4.1047281 87.66752913 1.375 89.4375 C0.60607422 89.93701172 -0.16285156 90.43652344 -0.95507812 90.95117188 C-12.004375 98.111875 -12.004375 98.111875 -14.5 98.1875 C-18.3461664 96.07831197 -20.00106098 92.24859834 -21.5390625 88.2890625 C-24.17407305 79.00924275 -22.15277833 68.84426326 -20.77587891 59.48046875 C-20.07438264 54.59732591 -19.44331881 49.7051831 -18.8125 44.8125 C-18.67739014 43.81049561 -18.54228027 42.80849121 -18.40307617 41.77612305 C-17.60654585 35.58265162 -16.95077603 29.3734614 -17.4375 23.125 C-18.44586062 21.89232652 -18.44586062 21.89232652 -20.50390625 22.02734375 C-21.73947266 22.04474609 -21.73947266 22.04474609 -23 22.0625 C-24.23943359 22.07603516 -24.23943359 22.07603516 -25.50390625 22.08984375 C-26.14199219 22.10144531 -26.78007812 22.11304688 -27.4375 22.125 C-27.7675 20.475 -28.0975 18.825 -28.4375 17.125 C-27.86306152 16.75213867 -27.28862305 16.37927734 -26.69677734 15.99511719 C-24.06843934 14.28878935 -21.44046694 12.58189925 -18.8125 10.875 C-17.90886719 10.28847656 -17.00523437 9.70195312 -16.07421875 9.09765625 C-15.19121094 8.52402344 -14.30820313 7.95039063 -13.3984375 7.359375 C-12.54032471 6.8029834 -11.68221191 6.2465918 -10.7980957 5.67333984 C-8.8251154 4.37924107 -6.88106348 3.05393704 -4.94140625 1.7109375 C-2.4375 0.125 -2.4375 0.125 0 0 Z " fill="#FBFCFD" transform="translate(221.4375,195.875)"/>
<path d="M0 0 C3.80531926 3.1603499 6.26165879 7.36573899 8.84375 11.53125 C11.5676885 15.74582203 11.5676885 15.74582203 14.84375 19.53125 C17.16650177 19.93172444 19.50114357 20.2709604 21.84375 20.53125 C22.33875 22.51125 22.33875 22.51125 22.84375 24.53125 C19.67001885 26.38921915 16.47783499 28.21292702 13.28125 30.03125 C12.38599609 30.55589844 11.49074219 31.08054688 10.56835938 31.62109375 C5.52980511 34.46335513 1.79866012 36.47309803 -4.15625 35.53125 C-10.31929637 32.69251349 -13.90144556 25.73638906 -17.359375 20.23828125 C-19.44903456 17.08971686 -19.44903456 17.08971686 -22.15625 14.53125 C-26.25166381 13.77725721 -26.25166381 13.77725721 -30.15625 14.53125 C-34.93624943 18.29759196 -37.69293671 22.64348472 -39.15625 28.53125 C-40.21537181 39.13674842 -40.20605996 49.94915719 -35.15625 59.53125 C-34.72054688 60.41167969 -34.28484375 61.29210937 -33.8359375 62.19921875 C-29.73391469 69.78684018 -24.39477317 74.76011039 -16.15625 77.53125 C-9.23616884 78.44542355 -3.6502283 77.4008051 2.65234375 74.50390625 C4.71194456 73.58975188 6.64665549 73.00670325 8.84375 72.53125 C9.50375 73.85125 10.16375 75.17125 10.84375 76.53125 C-1.60080694 87.146433 -12.65371608 96.3575972 -29.5546875 95.94140625 C-38.84766472 94.8830954 -47.02825154 90.59356212 -53.15625 83.53125 C-59.12438293 75.28689893 -63.67776965 65.80017446 -64.15625 55.53125 C-64.23101562 54.62632812 -64.30578125 53.72140625 -64.3828125 52.7890625 C-65.01314696 40.01649585 -59.28785772 30.04207034 -51.15625 20.53125 C-39.62577005 8.34887012 -17.55384467 -10.07187809 0 0 Z " fill="#FAFBFD" transform="translate(357.15625,214.46875)"/>
<path d="M0 0 C17.90545461 4.70722345 17.90545461 4.70722345 36.21777344 3.58203125 C37.20777344 5.56203125 37.20777344 5.56203125 38.21777344 7.58203125 C35.48950848 9.35425676 32.76000153 11.12456038 30.03027344 12.89453125 C29.26134766 13.39404297 28.49242187 13.89355469 27.70019531 14.40820312 C26.20287589 15.37856893 24.70237484 16.34404581 23.19848633 17.30419922 C21.63701754 18.31156119 20.10178488 19.35959132 18.57714844 20.421875 C15.47694144 21.94631453 13.09250315 21.91168895 9.65527344 21.83203125 C8.54023438 21.8165625 7.42519531 21.80109375 6.27636719 21.78515625 C3.73914621 21.61665626 1.65060809 21.23744196 -0.78222656 20.58203125 C-0.86263184 21.31615234 -0.94303711 22.05027344 -1.02587891 22.80664062 C-1.40175749 26.23190797 -1.77939386 29.65697892 -2.15722656 33.08203125 C-2.29298096 34.31840332 -2.42873535 35.55477539 -2.56860352 36.82861328 C-3.22332566 42.74395626 -3.9036208 48.65016456 -4.70898438 54.546875 C-5.71715251 61.93255614 -6.01181756 69.13307877 -5.78222656 76.58203125 C-2.88988341 77.40841501 -0.89480225 77.58203125 2.21777344 77.58203125 C2.54777344 78.90203125 2.87777344 80.22203125 3.21777344 81.58203125 C-2.31098981 85.57572028 -7.93110465 89.43944142 -13.65722656 93.14453125 C-14.72714844 93.84707031 -15.79707031 94.54960937 -16.89941406 95.2734375 C-19.78222656 96.58203125 -19.78222656 96.58203125 -22.06347656 95.91015625 C-25.65597153 93.13413741 -27.36433802 89.83236678 -28.78222656 85.58203125 C-30.26446577 70.58799956 -27.31578752 55.32865131 -25.28222656 40.51953125 C-24.94396991 37.99557881 -24.60672266 35.47149087 -24.27050781 32.94726562 C-23.45270201 26.82391134 -22.6224878 20.70234242 -21.78222656 14.58203125 C-26.56616562 13.86370923 -31.12875153 13.44647296 -35.96972656 13.45703125 C-37.15953125 13.45445312 -38.34933594 13.451875 -39.57519531 13.44921875 C-42.18935007 13.55747851 -44.30374851 13.80712248 -46.78222656 14.58203125 C-47.44222656 12.93203125 -48.10222656 11.28203125 -48.78222656 9.58203125 C-45.74110907 7.97682191 -42.69923424 6.37305289 -39.65722656 4.76953125 C-38.80128906 4.31771484 -37.94535156 3.86589844 -37.06347656 3.40039062 C-35.39102055 2.51913496 -33.71706201 1.64072405 -32.04150391 0.76538086 C-30.16755557 -0.21614363 -28.30189564 -1.21347368 -26.43847656 -2.21484375 C-18.00228823 -6.03594082 -8.46337803 -2.2610024 0 0 Z " fill="#FBFCFD" transform="translate(168.7822265625,190.41796875)"/>
</svg>
